<svg xmlns="http://www.w3.org/2000/svg" width="201" height="169"><g fill="none" fill-rule="evenodd"><g transform="translate(18.863 8.304)"><ellipse fill="#49D486" cx="18.151" cy="20.543" rx="18.151" ry="20.543"/><path d="M24.556 40.061c5.265 29.71 2.336 56.563 17.394 80.46M24.317 39.724l.577.663-.7.257.123-.92z" stroke="#49D486"/><path d="M27.647 9.739c3.55 5.363 5.063 9.998 2.5 16.263" stroke="#FFF" stroke-linecap="round"/></g><g transform="rotate(-10 390.602 13.34)"><ellipse fill="#BDF0D5" cx="15.44" cy="18.4" rx="15.44" ry="18.4"/><path d="M20.905 35.54c5.928 13.587 2.63 25.869 19.583 36.799" stroke="#BDF0D5"/><path d="M23.86 8.769c2.83 4.798 4.034 8.944 1.992 14.548" stroke="#FFF" stroke-linecap="round"/></g><path d="M71.694 87.691l15.954-.672s1.84 21.182 2.561 34.818c.797 15.06 1.083 38.623 1.083 38.623h-5.909s-7.09-25.077-5.22-38.064c-3.348-14.106-8.47-34.705-8.47-34.705z" fill="#FFF" fill-rule="nonzero"/><path d="M87.653 86.57l-.392.043.392-.043.02.241.06.696.218 2.585c.183 2.198.435 5.27.71 8.77.549 6.997 1.188 15.701 1.549 22.522.398 7.534.669 17.19.84 24.96a1666.474 1666.474 0 01.239 13.394l.003.268-.393.007.393-.006a.482.482 0 01-.113.32.37.37 0 01-.28.133H85c-.17 0-.321-.125-.374-.31l.375-.137-.375.136-.005-.018-.015-.055a58.518 58.518 0 01-.282-1.035 204.098 204.098 0 01-3.013-13.085c-1.528-7.848-2.844-17.381-1.923-23.962-1.667-7.03-3.77-15.654-5.458-22.533a5484.817 5484.817 0 00-2.748-11.143l-.168-.677-.058-.234.378-.122-.378.121a.5.5 0 01.06-.385.383.383 0 01.304-.184l15.928-.671c.207-.009.385.168.406.404zM71.848 87.71l.09.364a5424.149 5424.149 0 012.748 11.145c1.696 6.91 3.81 15.583 5.483 22.634a.509.509 0 01.008.189c-.92 6.395.364 15.828 1.9 23.719a203.123 203.123 0 002.999 13.018c.09.336.161.6.212.785H90.5l-.008-.587-.043-2.872c-.04-2.442-.1-5.856-.185-9.739-.171-7.768-.442-17.412-.839-24.93-.36-6.806-.999-15.5-1.548-22.495a1823.41 1823.41 0 00-.927-11.35l-.044-.516-15.058.635z" fill="#000"/><path d="M59.691 87.69l15.772-.67S72.417 108.721 66 122.111L42.047 153.63l-5.027-4.024s12.518-25.146 18.925-30.734l3.746-31.181z" fill="#FFF" fill-rule="nonzero"/><path d="M75.458 87.537l-.39-.07.39.07v.001l-.002.015-.007.048-.027.186a160.736 160.736 0 01-.542 3.363 198.657 198.657 0 01-1.752 8.942c-1.564 7.105-3.937 15.917-7.168 22.66a.455.455 0 01-.047.078L41.98 154.328a.362.362 0 01-.526.073l-5.022-4.021a.485.485 0 01-.116-.585l.343.22-.343-.22.036-.073a153.072 153.072 0 01.515-1.02 333.219 333.219 0 016.513-12.19c1.967-3.496 4.136-7.171 6.217-10.325 2.02-3.062 3.98-5.667 5.602-7.128l3.72-30.983c.027-.215.185-.378.377-.386l15.757-.67a.376.376 0 01.31.15c.078.1.112.235.094.367zm-38.28 62.346l4.44 3.554 23.67-31.154c3.171-6.635 5.519-15.337 7.076-22.407.779-3.539 1.358-6.66 1.743-8.897a161.716 161.716 0 00.494-3.045l-14.944.635-3.698 30.79a.461.461 0 01-.15.294c-1.554 1.356-3.508 3.93-5.58 7.07-2.064 3.128-4.222 6.783-6.183 10.269a332.106 332.106 0 00-6.867 12.891z" fill="#000"/><path d="M62.394 89.585c.163.027.275.197.251.379l-4.186 31.728-.118.081c-.978.672-3.074 2.812-6.108 7.057-3.025 4.233-6.968 10.538-11.644 19.51-.083.159-.265.212-.407.12-.142-.094-.19-.298-.107-.457 4.688-8.994 8.647-15.327 11.694-19.59 2.93-4.101 5.034-6.311 6.142-7.124l4.145-31.423c.024-.182.176-.308.338-.281z" fill="#000"/><path d="M45.065 163.94c-4.493-5.982-4.7-10.887-4.7-10.887l-2.764-1.986s-2.996 3.355-4.35 6.388c4.301 3.09 5.956 4.78 10.966 8.13 1.05.003 1.37-.95.848-1.645z" fill="#000" fill-rule="nonzero"/><path d="M40.36 152.48l-3.186-2.267-.213.236.264.324c-.264-.324-.263-.325-.264-.324l-.002.003-.007.007a4.514 4.514 0 00-.126.143 38.9 38.9 0 00-1.552 1.909c-.923 1.212-2.034 2.825-2.733 4.374-.094.209-.033.468.14.59a123.853 123.853 0 014.347 3.258c.284.22.567.44.853.66a91.707 91.707 0 005.765 4.133l.087.058h.1c.618.002 1.12-.28 1.353-.792.234-.517.128-1.124-.217-1.579-2.211-2.915-3.36-5.559-3.958-7.462-.298-.952-.46-1.72-.545-2.245a9.786 9.786 0 01-.095-.782v-.008l-.01-.236zm-.736.524v.007c.016.154.043.378.09.663.093.569.264 1.384.578 2.385.628 2.003 1.826 4.745 4.103 7.748.176.232.17.44.114.566-.055.12-.214.289-.578.313a90.882 90.882 0 01-5.628-4.04 407.33 407.33 0 01-.849-.657c-1.208-.936-2.45-1.898-4.062-3.054.659-1.342 1.62-2.732 2.454-3.83a37.915 37.915 0 011.434-1.769l2.344 1.668z" fill="#000"/><path d="M98.93 166.129c-6.823-2.392-9.287-6.523-9.287-6.523h-3.412s-1.137 4.783-.948 8.262c5.308 0 7.582.435 13.648.217.947-.652.791-1.68 0-1.956z" fill="#000" fill-rule="nonzero"/><path d="M89.49 159.606h-3.922l-.08.338.388.12-.388-.12-.001.004-.003.011-.01.042-.036.16a46.788 46.788 0 00-.5 2.626c-.262 1.63-.505 3.725-.408 5.508.013.24.19.429.402.429 2.158 0 3.808.072 5.427.142l1.074.046c1.99.081 4.076.136 7.11.027l.105-.003.09-.062c.556-.382.875-.938.844-1.53a1.374 1.374 0 00-.933-1.24c-3.35-1.17-5.618-2.762-7.045-4.05a13.847 13.847 0 01-1.54-1.62 8.516 8.516 0 01-.433-.593l-.018-.029-.004-.006-.12-.2zm-.416.914a14.68 14.68 0 002.029 2.248c1.5 1.356 3.859 3.003 7.309 4.208.266.093.358.278.366.423.007.138-.057.384-.372.63a85.23 85.23 0 01-6.944-.03c-.357-.014-.711-.03-1.068-.045a119.164 119.164 0 00-5.076-.143c-.036-1.578.175-3.386.412-4.86a45.587 45.587 0 01.459-2.43h2.885z" fill="#000"/><path d="M49.991 56.751c3.549 8.158 12.52 6.946 16.562 5.32 9.069 8.757 19.617-15.296 12.717-23.165-5.696-6.495-13.21-1.552-16.956 2.992-3.746 4.545-16.76 4.656-12.323 14.853z" fill="#000" fill-rule="nonzero"/><path d="M70.059 36.474c-3.018.977-5.802 3.317-7.656 5.561-.946 1.147-2.471 2.007-4.137 2.809-.5.24-1.012.475-1.527.712-1.21.556-2.434 1.118-3.536 1.767-1.568.925-2.865 2.014-3.501 3.485-.634 1.464-.624 3.331.47 5.841 1.745 4.006 4.823 5.713 7.972 6.219 3.153.506 6.37-.193 8.368-.996l.054-.02.043.04c1.114 1.075 2.247 1.641 3.361 1.802 1.115.16 2.218-.084 3.276-.646 2.118-1.123 4.046-3.515 5.486-6.432 1.439-2.915 2.383-6.342 2.542-9.524.158-3.183-.47-6.102-2.159-8.024-2.8-3.188-6.044-3.57-9.056-2.594zm-.054-.211c3.068-.994 6.39-.605 9.25 2.651 1.742 1.983 2.374 4.975 2.214 8.19-.16 3.219-1.114 6.678-2.566 9.619-1.45 2.94-3.405 5.373-5.574 6.524-1.085.577-2.226.832-3.384.665-1.143-.165-2.295-.74-3.42-1.811-2.024.802-5.245 1.493-8.408.985-3.195-.514-6.34-2.252-8.122-6.34-1.11-2.55-1.138-4.49-.47-6.034.665-1.536 2.008-2.653 3.587-3.584 1.11-.654 2.348-1.223 3.563-1.78a93.3 93.3 0 001.513-.706c1.669-.803 3.157-1.648 4.072-2.756 1.87-2.264 4.682-4.632 7.745-5.623z" fill="#000"/><path d="M54.997 105.901l-1.394-5.181 4.583-1.745c.823.455 1.887 3.455 2.142 3.837.254.382-.375 1-.63.618-.203-.306-.992-1.426-1.211-1.547.071.233.204 1.231.238 1.492.09.29.27.873.524 1.255.255.382.42.473.838.946.42.473-.12 1.382-.704.818-.358-.346-1.372-1.644-1.766-2.183.06.194.23.658.434.964l.763 1.146c.51.764.21 1.564-.628.618-.238-.268-1.043-1.461-1.437-2.001.144.321.306.773.434.964.225.34.673.855.928 1.237.254.382-.12 1.382-.794.527-.1-.127-.749-.655-1.602-2.092.03.097.159.426.434.964.344.672.438.813.598 1.054l.001.001c.254.382-.21 1.091-.63.618-.334-.378-.673-.855-1.121-2.31z" fill="#FFF" fill-rule="nonzero"/><path d="M52.892 100.103a.412.412 0 01.225-.23l4.575-1.73a.322.322 0 01.273.02c.299.164.568.517.792.873.234.372.461.819.664 1.25a40.372 40.372 0 01.537 1.198c.074.17.138.315.19.427.026.057.048.102.066.136l.02.04.009.014c.157.234.17.51.112.737-.054.211-.17.383-.293.503a.82.82 0 01-.468.24c-.197.023-.417-.052-.574-.286-.056-.083-.16-.234-.285-.409.096.306.244.74.43 1.02.108.16.194.256.308.374l.087.087c.105.107.238.24.406.43.39.437.315 1.07.052 1.434a.814.814 0 01-.568.35.741.741 0 01-.386-.065.98.98 0 01-.14.589c-.183.278-.464.312-.696.235a.856.856 0 01-.073-.028c-.037.147-.1.29-.192.41-.148.193-.37.317-.631.275-.195-.032-.376-.15-.544-.324-.044.165-.12.31-.208.416a.724.724 0 01-.507.278c-.216.013-.42-.088-.59-.278-.387-.434-.754-.973-1.218-2.47l-.006-.018-1.39-5.143a.55.55 0 01.023-.355zm3.166 7.3c-.163-.243-.27-.41-.609-1.07-.28-.542-.423-.899-.467-1.038-.067-.217.01-.46.178-.569.17-.11.379-.05.49.137.659 1.102 1.153 1.601 1.41 1.862.07.07.122.123.156.165.1.126.166.17.197.184a.22.22 0 00.015-.107 10.765 10.765 0 00-.469-.62c-.16-.203-.331-.42-.45-.598a3.323 3.323 0 01-.254-.51l-.08-.193a11.094 11.094 0 00-.138-.323c-.094-.206-.044-.464.115-.6.16-.134.377-.104.506.072.148.2.352.491.56.787l.221.314c.288.408.53.744.628.853.056.063.106.114.152.155a1.25 1.25 0 00-.082-.14l-.762-1.137c-.241-.36-.429-.876-.494-1.085-.064-.208.003-.443.161-.558.158-.114.361-.077.484.09.191.26.539.711.883 1.14.351.437.676.822.832.971.082.079.13.078.143.077.017-.002.038-.012.058-.04a.16.16 0 00.03-.087c0-.015-.003-.035-.027-.062-.152-.17-.265-.285-.368-.39l-.1-.1a3.27 3.27 0 01-.406-.497c-.293-.438-.49-1.072-.578-1.356l-.005-.018a.545.545 0 01-.02-.088l-.003-.026c-.02-.143-.058-.432-.1-.717a16.954 16.954 0 00-.099-.578 1.462 1.462 0 00-.011-.05l-.002-.01a.112.112 0 01-.002-.006l-.001-.004v-.002a.53.53 0 01.096-.5.334.334 0 01.42-.082.913.913 0 01.19.151c.054.054.112.118.17.185.116.136.248.304.375.472.22.292.439.6.563.782a.225.225 0 00.037-.036 3.618 3.618 0 01-.12-.24 23.12 23.12 0 01-.2-.448l-.042-.098c-.14-.322-.304-.698-.482-1.074a11.292 11.292 0 00-.61-1.149 2.642 2.642 0 00-.39-.508l-4.042 1.53 1.269 4.689c.43 1.384.738 1.79 1.02 2.107a.18.18 0 00.03.029l.005-.005a.113.113 0 00.016-.027l.003-.006z" fill="#000"/><path d="M58.963 88.092l29.076-1.336-2.35-18.698c3.704-1.892 12.355-4.162 15.958-8.347 3.602-4.185 3.459-17.029 2.937-22.928-1.077.074-3.583-.022-4.993-1.001-.718 4.86-2.526 14.847-4.014 15.915-1.488 1.069-8.321 2.3-11.552 2.783l-10.083.556-12.335 2.115c-4.471 3.636-13.53 12.888-14 20.813-.47 7.924 3.981 18.364 6.266 22.593 1.435.26 4.464.29 5.09-1.67-1.175-4.933-3.27-15.625-2.251-18.92 1.018-3.294 3.41-6.344 4.307-7.457l-2.056 15.582z" fill="#F2FDF7" fill-rule="nonzero"/><path d="M99.718 34.968a.36.36 0 01.371.025c.642.44 1.567.699 2.498.834.923.133 1.804.138 2.327.103.212-.015.397.162.418.4.266 2.968.436 7.68.08 12.183-.178 2.251-.489 4.463-.99 6.385-.499 1.913-1.197 3.58-2.175 4.702-1.89 2.168-5.07 3.81-8.182 5.135-1.341.571-2.684 1.09-3.924 1.568l-.61.236c-1.274.493-2.404.94-3.288 1.364l2.336 18.353a.484.484 0 01-.088.348.382.382 0 01-.288.16l-29.439 1.334a.377.377 0 01-.311-.147.483.483 0 01-.097-.363l1.882-14.083c-1.099 1.459-2.638 3.758-3.396 6.176-.23.735-.296 1.943-.224 3.48.072 1.518.275 3.299.549 5.14.547 3.682 1.372 7.571 1.964 10.027a.498.498 0 01-.01.268c-.394 1.216-1.515 1.74-2.573 1.952-1.083.216-2.26.139-3.016.004a.398.398 0 01-.276-.207c-1.17-2.136-2.886-5.828-4.252-9.984-1.363-4.148-2.393-8.807-2.15-12.86.248-4.114 2.737-8.501 5.665-12.27 2.942-3.787 6.39-7.03 8.675-8.863.05-.04.11-.068.171-.078l12.49-2.113a.398.398 0 01.04-.005l10.192-.555c1.63-.24 4.161-.667 6.47-1.164 1.16-.25 2.258-.517 3.156-.786.916-.275 1.575-.538 1.894-.764.102-.072.256-.264.445-.635.181-.357.37-.83.565-1.4.387-1.139.775-2.62 1.142-4.231.733-3.22 1.37-6.917 1.733-9.338a.442.442 0 01.226-.331zm.464 1.08c-.375 2.42-.973 5.815-1.655 8.81-.37 1.624-.767 3.142-1.17 4.327a11.905 11.905 0 01-.617 1.524c-.202.398-.435.752-.71.947-.434.308-1.204.599-2.112.87-.925.278-2.043.549-3.21.8a108.577 108.577 0 01-6.566 1.179l-10.19.555-12.374 2.094c-2.243 1.811-5.6 4.979-8.46 8.662-2.909 3.743-5.243 7.94-5.472 11.745-.232 3.868.753 8.386 2.102 12.492 1.31 3.984 2.946 7.534 4.088 9.65.695.104 1.68.147 2.573-.031.94-.188 1.643-.59 1.921-1.258-.594-2.482-1.404-6.321-1.945-9.966-.277-1.859-.485-3.676-.559-5.24-.072-1.548-.017-2.91.268-3.822 1.061-3.388 3.537-6.497 4.443-7.606a.366.366 0 01.463-.1.46.46 0 01.222.467l-2.01 15.04 28.52-1.293-2.317-18.2a.458.458 0 01.23-.468c.957-.483 2.225-.986 3.627-1.528.201-.079.406-.157.613-.237 1.24-.479 2.57-.992 3.899-1.558 3.116-1.327 6.14-2.912 7.897-4.926.846-.97 1.497-2.475 1.98-4.33.482-1.846.786-3.995.961-6.213.335-4.23.198-8.66-.043-11.6-.56.015-1.313-.012-2.093-.125-.772-.111-1.601-.311-2.304-.661z" fill="#000"/><path d="M84.806 63.119c.203-.053.404.103.448.349l.753 4.212c.044.246-.085.489-.288.542-.204.053-.404-.103-.448-.349l-.754-4.213c-.044-.246.085-.488.289-.541zM64.044 69.215a.39.39 0 01-.022.568l-2.931 2.612a.432.432 0 01-.592-.021.39.39 0 01.022-.568l2.931-2.613a.432.432 0 01.592.022zM77.724 54.837c-.55 1.315-1.947 2.773-5.11 3.106-1.384.146-2.59-.106-3.524-.51-.923-.4-1.608-.963-1.919-1.47l.496-.36c.22.358.783.855 1.643 1.227.85.369 1.962.603 3.246.468 2.996-.316 4.182-1.667 4.625-2.73l.543.27zM100.803 36.64c.19.032.316.205.284.386l-.81 4.457a.348.348 0 01-.404.271.335.335 0 01-.284-.385l.81-4.457a.348.348 0 01.404-.271zM101.67 36.638c.11.022.188.182.174.357l-.352 4.484c-.014.175-.114.3-.224.278-.11-.022-.189-.182-.175-.357l.352-4.484c.014-.176.114-.3.224-.278zM103.073 36.636c.161.007.286.156.28.333l-.17 4.483c-.007.177-.143.314-.304.307-.161-.007-.286-.157-.28-.333l.17-4.484c.008-.176.143-.314.304-.306z" fill="#000"/><path d="M71.867 56.277c4.067 0 7.365-3.823 7.365-8.54 0-.884-.116-1.737-.331-2.539-1.778.554-8.643-.923-11.854-1.73l-.953 3c-.83-.116-2.797.32-2.687 3 .1 2.424 2.004 2.424 2.2 2.77 1.298 2.425 3.617 4.039 6.26 4.039z" fill="#FFF" fill-rule="nonzero"/><path d="M67.182 42.613l.337.084c1.596.399 4.1.962 6.422 1.357 1.162.197 2.272.352 3.199.423.944.073 1.643.054 2.015-.061l.37-.114.113.42c.226.836.348 1.726.348 2.647 0 4.92-3.467 8.908-7.744 8.908-2.757 0-5.177-1.658-6.549-4.153a2.984 2.984 0 00-.241-.107l-.008-.003a4.29 4.29 0 01-.779-.396 2.628 2.628 0 01-.836-.894c-.238-.418-.394-.948-.422-1.62-.061-1.484.467-2.413 1.172-2.93a2.842 2.842 0 011.634-.534l.97-3.027zm.507 1.06l-.94 2.937-.312-.043a2.102 2.102 0 00-1.431.378c-.456.334-.854.947-.806 2.116.022.527.141.896.293 1.163.153.269.355.46.572.605.22.147.447.242.656.329l.01.004c.095.04.2.082.286.128.073.038.22.12.313.282l.002.005.003.005c1.226 2.27 3.414 3.781 5.907 3.781 3.838 0 6.95-3.579 6.95-7.994 0-.686-.076-1.352-.217-1.987-.499.073-1.158.063-1.888.007-.956-.074-2.09-.232-3.262-.431a93.519 93.519 0 01-6.136-1.284zM54.921 100.654c-.158.078-.341-.006-.409-.19l-1.638-4.404c-.067-.182.006-.394.164-.472.159-.078.342.007.41.19l1.637 4.404c.068.182-.005.394-.164.472zM56.388 100.664a.344.344 0 01-.436-.207l-1.576-4.45a.335.335 0 01.21-.43.344.344 0 01.436.208l1.577 4.45a.335.335 0 01-.21.43zM57.18 99.815c-.142.053-.289-.053-.33-.237l-.975-4.432c-.04-.183.04-.375.182-.427.14-.053.288.053.328.237l.977 4.432c.04.183-.042.375-.183.427z" fill="#000"/><path d="M100.002 36.051c-.034-.417-.227-1.443-.723-2.213-.497-.77-.483-3.723-.414-5.102.104-.225.372-.54.62 0 .31.674.31 3.08 1.034 3.273.104-1.701.248-5.449 0-6.835.069-.256.29-.635.62-.096.35.569.699 2.716.799 3.892-.073-1.374-.178-3.459-.178-3.796 0-.481.517-.674.723-.096.207.578.517 3.85.517 4.428v-4.428c0-.578.517-.481.62 0 .104.481.414 1.925.414 4.428.034-1.22.103-3.793.103-4.332 0-.674.517-.481.517-.096s.207 1.733.207 4.428-.414 6.45-.724 7.123c-.792.032-2.729-.038-4.135-.578z" fill="#FFF" fill-rule="nonzero"/><path d="M103.021 25.883c.102.738.2 1.798.2 3.197 0 .238.18.43.405.434a.419.419 0 00.412-.367 44.396 44.396 0 01-.24 4.2c-.07.673-.148 1.28-.228 1.756a8.84 8.84 0 01-.132.664c-.817.004-2.271-.089-3.417-.473-.081-.54-.298-1.422-.75-2.13-.07-.11-.15-.358-.215-.758a12.343 12.343 0 01-.128-1.341 28.79 28.79 0 01-.021-1.982l.012.072c.02.118.04.253.063.395.033.215.07.446.107.657.065.36.148.737.271 1.045.113.282.316.646.696.749a.394.394 0 00.343-.07.441.441 0 00.169-.324c.051-.854.113-2.222.13-3.552.013-.887.006-1.779-.04-2.493.068.262.135.57.196.897.139.737.247 1.547.296 2.118.01.192.02.37.027.528a.42.42 0 00.423.41.424.424 0 00.4-.435c0-.151-.012-.347-.03-.566a378.986 378.986 0 01-.158-3.24c.015.09.03.19.047.303.056.388.113.863.164 1.34.102.967.176 1.903.176 2.163 0 .24.184.434.41.434a.423.423 0 00.412-.434v-3.197zm.44-1.707c-.128-.19-.317-.328-.55-.348a.608.608 0 00-.54.246.739.739 0 00-.064.101c-.177-.228-.434-.36-.732-.29a.76.76 0 00-.515.45.971.971 0 00-.327-.312.567.567 0 00-.562.003.797.797 0 00-.29.309c-.056.102-.095.21-.12.302a.456.456 0 00-.008.197c.114.642.141 1.88.124 3.209-.008.551-.023 1.11-.042 1.634l-.038-.242c-.022-.143-.044-.286-.068-.432-.053-.313-.118-.65-.223-.88a1.04 1.04 0 00-.328-.432.576.576 0 00-.535-.077.77.77 0 00-.327.242 1.235 1.235 0 00-.164.267.454.454 0 00-.04.165c-.035.7-.056 1.797-.005 2.822.025.511.068 1.014.138 1.444.068.412.17.82.345 1.095.437.685.616 1.63.647 2.006a.432.432 0 00.268.37c1.465.568 3.443.637 4.245.604a.411.411 0 00.355-.246c.105-.231.195-.651.275-1.13.084-.5.165-1.126.236-1.811.141-1.37.245-2.996.245-4.362 0-1.358-.052-2.378-.104-3.109-.023-.329-.046-.599-.065-.811l-.005-.067a6.659 6.659 0 01-.03-.435c0-.374-.253-.746-.631-.781a.59.59 0 00-.565.3z" fill="#000"/><path d="M101.138 32.528a.317.317 0 01.443-.115c.162.1.347.323.518.647.178.336.358.813.493 1.463a.334.334 0 01-.248.397.323.323 0 01-.384-.257c-.123-.597-.284-1.011-.427-1.282a1.864 1.864 0 00-.192-.3.758.758 0 00-.093-.095.34.34 0 01-.11-.458z" fill="#000"/><path d="M138.781 87.691l-15.954-.672s-1.84 21.182-2.561 34.818c-.797 15.06-1.083 38.623-1.083 38.623h5.909s7.09-25.077 5.22-38.064c3.348-14.106 8.47-34.705 8.47-34.705z" fill="#030303" fill-rule="nonzero"/><path d="M122.069 86.57l.391.043-.391-.043-.021.241-.06.696-.218 2.585c-.183 2.198-.435 5.27-.71 8.77-.549 6.997-1.188 15.701-1.549 22.522-.398 7.534-.669 17.19-.84 24.96a1666.473 1666.473 0 00-.228 12.62l-.01.774-.004.268.393.007-.393-.006c-.001.12.04.235.113.32a.37.37 0 00.28.133h5.9c.17 0 .322-.125.374-.31l-.375-.137.375.136.005-.018.015-.055.06-.214c.051-.188.127-.465.222-.821a204.097 204.097 0 003.013-13.085c1.529-7.848 2.844-17.381 1.923-23.962a3189.89 3189.89 0 015.459-22.533 5484.297 5484.297 0 012.747-11.143l.168-.677.058-.234-.378-.122.378.121a.498.498 0 00-.06-.385.383.383 0 00-.303-.184l-15.928-.671c-.208-.009-.386.168-.406.404zm15.805 1.141l-.09.364a5869.53 5869.53 0 00-2.749 11.145c-1.696 6.91-3.81 15.583-5.482 22.634a.509.509 0 00-.009.189c.92 6.395-.364 15.828-1.9 23.719a203.123 203.123 0 01-2.998 13.018c-.09.336-.162.6-.213.785h-5.212l.008-.587c.01-.672.024-1.651.044-2.872.039-2.442.1-5.856.185-9.739.17-7.768.44-17.412.838-24.93.36-6.806.999-15.5 1.548-22.495a1823.404 1823.404 0 01.927-11.35l.044-.516 15.059.635z" fill="#000"/><path d="M150.784 87.69l-15.772-.67s3.046 21.702 9.463 35.092l23.953 31.517 5.028-4.024s-12.52-25.146-18.926-30.734l-3.746-31.181z" fill="#030303" fill-rule="nonzero"/><path d="M134.263 87.537l.39-.07-.39.07v.001l.003.015.006.048.028.186a160.74 160.74 0 00.542 3.363c.386 2.248.968 5.385 1.751 8.942 1.564 7.105 3.938 15.917 7.168 22.66.013.028.03.054.048.078l23.931 31.498c.133.174.36.205.526.073l5.023-4.021a.485.485 0 00.116-.585l-.343.22.342-.22-.036-.073-.106-.212c-.094-.186-.231-.46-.409-.809a332.472 332.472 0 00-6.513-12.19c-1.967-3.495-4.136-7.17-6.217-10.324-2.02-3.062-3.98-5.667-5.602-7.128l-3.72-30.983c-.027-.215-.185-.378-.376-.386l-15.758-.67a.376.376 0 00-.31.15.489.489 0 00-.094.367zm38.28 62.346l-4.44 3.554-23.67-31.154c-3.171-6.635-5.519-15.337-7.075-22.407a197.359 197.359 0 01-1.743-8.897 159.56 159.56 0 01-.495-3.045l14.944.635 3.698 30.79a.462.462 0 00.15.294c1.554 1.356 3.509 3.93 5.58 7.07 2.065 3.128 4.223 6.783 6.183 10.269a332.13 332.13 0 016.868 12.891z" fill="#000"/><path d="M148.08 89.585c-.162.027-.274.197-.25.379l4.186 31.728.118.081c.978.672 3.074 2.812 6.108 7.057 3.026 4.233 6.968 10.538 11.644 19.51.083.159.265.212.407.12.142-.094.19-.298.107-.457-4.688-8.994-8.646-15.327-11.694-19.59-2.93-4.101-5.034-6.311-6.142-7.124l-4.145-31.423c-.025-.182-.176-.308-.338-.281z" fill="#FFF"/><path d="M164.656 163.94c4.493-5.982 4.7-10.887 4.7-10.887l2.765-1.986s2.995 3.355 4.35 6.388c-4.302 3.09-5.957 4.78-10.967 8.13-1.05.003-1.37-.95-.848-1.645z" fill="#000" fill-rule="nonzero"/><path d="M169.361 152.48l3.186-2.267.213.236-.264.324.264-.324.002.003.007.007.027.03.1.113c.085.098.21.242.362.423.305.362.726.876 1.19 1.486.922 1.212 2.034 2.825 2.732 4.374.095.209.033.468-.14.59a124.047 124.047 0 00-4.347 3.258c-.284.22-.567.44-.853.66a91.697 91.697 0 01-5.765 4.133l-.087.058h-.1c-.618.002-1.12-.28-1.353-.792-.234-.517-.127-1.124.217-1.579 2.211-2.915 3.361-5.559 3.958-7.462.299-.952.46-1.72.545-2.245a9.813 9.813 0 00.094-.748l.002-.034v-.008l.01-.236zm.736.524v.007c-.016.154-.043.378-.09.663-.092.569-.264 1.384-.578 2.385-.628 2.003-1.825 4.745-4.103 7.748-.176.232-.17.44-.114.566.055.12.214.289.578.313a90.778 90.778 0 005.628-4.04l.849-.657c1.208-.936 2.45-1.898 4.062-3.054-.658-1.342-1.62-2.732-2.454-3.83a38.033 38.033 0 00-1.434-1.769l-2.344 1.668z" fill="#000"/><path d="M111.544 166.129c6.824-2.392 9.288-6.523 9.288-6.523h3.412s1.137 4.783.948 8.262c-5.308 0-7.582.435-13.648.217-.947-.652-.791-1.68 0-1.956z" fill="#000" fill-rule="nonzero"/><path d="M120.232 159.606h3.92l.081.338-.388.12.388-.12.001.004.003.011.01.042.036.16a46.437 46.437 0 01.5 2.626c.262 1.63.505 3.725.408 5.508-.013.24-.19.429-.402.429-2.158 0-3.808.072-5.427.142l-1.074.046a86.032 86.032 0 01-7.11.027l-.105-.003-.09-.062c-.556-.382-.875-.938-.844-1.53.031-.596.411-1.058.933-1.24 3.35-1.17 5.619-2.762 7.045-4.05a13.865 13.865 0 001.54-1.62 8.516 8.516 0 00.433-.593l.019-.029.003-.006.12-.2zm.415.914a14.68 14.68 0 01-2.029 2.248c-1.5 1.356-3.858 3.003-7.309 4.208-.266.093-.358.278-.366.423-.007.138.057.384.372.63a85.23 85.23 0 006.944-.03c.357-.014.711-.03 1.068-.045 1.523-.067 3.088-.135 5.077-.143.036-1.578-.176-3.386-.413-4.86a45.327 45.327 0 00-.459-2.43h-2.885z" fill="#000"/><path d="M154.725 105.901l1.393-5.181-4.582-1.745c-.824.455-1.888 3.455-2.142 3.837-.255.382.374 1 .629.618.203-.306.992-1.426 1.212-1.547-.072.233-.204 1.231-.24 1.492-.089.29-.268.873-.523 1.255-.254.382-.419.473-.838.946-.42.473.12 1.382.704.818.358-.346 1.372-1.644 1.766-2.183-.06.194-.23.658-.434.964l-.763 1.146c-.51.764-.21 1.564.629.618.237-.268 1.043-1.461 1.437-2.001-.145.321-.307.773-.434.964-.226.34-.674.855-.928 1.237-.255.382.12 1.382.793.527.1-.127.749-.655 1.602-2.092-.03.097-.159.426-.434.964-.344.672-.438.813-.598 1.054v.001c-.255.382.21 1.091.628.618.336-.378.674-.855 1.123-2.31z" fill="#FFF" fill-rule="nonzero"/><path d="M156.83 100.103a.412.412 0 00-.226-.23l-4.575-1.73a.322.322 0 00-.273.02c-.299.164-.568.517-.791.873-.234.372-.462.819-.665 1.25-.185.39-.354.78-.494 1.1l-.043.098c-.074.17-.137.315-.19.427a4.003 4.003 0 01-.095.19.913.913 0 00-.112.737c.055.211.17.383.293.503a.82.82 0 00.469.24c.196.023.416-.052.573-.286.056-.083.16-.234.286-.409-.097.306-.245.74-.432 1.02-.107.16-.193.256-.307.374l-.086.087c-.106.107-.239.24-.407.43-.39.437-.315 1.07-.051 1.434a.814.814 0 00.567.35.74.74 0 00.386-.065c-.01.194.022.41.14.589.183.278.464.312.696.235a.881.881 0 00.073-.028c.037.147.1.29.192.41.148.193.37.317.631.275.195-.032.377-.15.544-.324.044.165.12.31.208.416a.725.725 0 00.507.278c.216.013.421-.088.59-.278.387-.434.754-.973 1.218-2.47l.006-.018 1.391-5.143a.55.55 0 00-.023-.355zm-3.167 7.3c.163-.243.27-.41.61-1.07.278-.542.423-.899.466-1.038.067-.217-.009-.46-.178-.569-.169-.11-.379-.05-.49.137-.659 1.102-1.152 1.601-1.41 1.862-.07.07-.122.123-.156.165a.622.622 0 01-.197.184.22.22 0 01-.015-.107 10.876 10.876 0 01.469-.62c.16-.203.332-.42.451-.598.093-.138.182-.342.253-.51.029-.067.055-.131.08-.193.049-.116.094-.223.138-.323.094-.206.044-.464-.115-.6-.16-.134-.377-.104-.506.072-.148.2-.352.491-.56.787l-.221.314c-.288.408-.53.744-.628.853a2.084 2.084 0 01-.151.155c.022-.044.049-.091.08-.14l.763-1.137c.241-.36.429-.876.494-1.085.065-.208-.003-.443-.16-.558-.159-.114-.362-.077-.484.09-.192.26-.54.711-.884 1.14-.35.437-.676.822-.832.971-.081.079-.13.078-.143.077-.017-.002-.038-.012-.058-.04a.156.156 0 01-.03-.087c0-.015.003-.035.027-.062.152-.17.265-.285.368-.39l.1-.1c.136-.14.26-.278.406-.497.293-.438.49-1.072.578-1.356a.546.546 0 00.025-.106l.004-.026c.019-.143.057-.432.1-.717a16.113 16.113 0 01.098-.578 2.256 2.256 0 01.014-.06l.001-.006.001-.004v-.002h.001a.531.531 0 00-.097-.5c-.113-.127-.279-.16-.42-.082a.913.913 0 00-.19.151 3.137 3.137 0 00-.17.185c-.116.136-.248.304-.375.472-.22.292-.438.6-.562.782a.2.2 0 01-.037-.036c.04-.073.082-.159.12-.24.057-.125.125-.28.199-.448l.043-.098c.14-.322.304-.698.481-1.074.197-.418.406-.824.61-1.149.154-.245.286-.412.39-.508l4.042 1.53-1.269 4.689c-.43 1.384-.738 1.79-1.02 2.107a.173.173 0 01-.03.029.094.094 0 01-.021-.032l-.003-.006z" fill="#000"/><path d="M151.512 88.092l-29.076-1.336 2.35-18.698c-3.704-1.892-12.355-4.162-15.958-8.347-3.602-4.185-3.459-17.029-2.937-22.928 1.077.074 3.583-.022 4.993-1.001.718 4.86 2.526 14.847 4.014 15.915 1.488 1.069 8.321 2.3 11.552 2.783l10.083.556 12.336 2.115c4.47 3.636 13.53 12.888 13.999 20.813.47 7.924-3.981 18.364-6.266 22.593-1.435.26-4.464.29-5.09-1.67 1.175-4.933 3.27-15.625 2.251-18.92-1.018-3.294-3.41-6.344-4.307-7.457l2.056 15.582z" fill="#FFF" fill-rule="nonzero"/><path d="M110.757 34.968a.36.36 0 00-.371.025c-.642.44-1.567.699-2.498.834-.923.133-1.804.138-2.327.103-.212-.015-.397.162-.418.4-.266 2.968-.436 7.68-.08 12.183.178 2.251.489 4.463.99 6.385.499 1.913 1.197 3.58 2.175 4.702 1.89 2.168 5.07 3.81 8.182 5.135 1.34.571 2.685 1.09 3.924 1.568l.61.236c1.274.493 2.405.94 3.288 1.364l-2.336 18.353a.484.484 0 00.088.348.382.382 0 00.289.16l29.438 1.334a.377.377 0 00.311-.147.483.483 0 00.097-.363l-1.882-14.083c1.099 1.459 2.639 3.758 3.396 6.176.23.735.296 1.943.224 3.48-.072 1.518-.275 3.299-.549 5.14-.547 3.682-1.371 7.571-1.964 10.027a.5.5 0 00.01.268c.395 1.216 1.515 1.74 2.574 1.952 1.083.216 2.259.139 3.016.004a.398.398 0 00.275-.207c1.17-2.136 2.886-5.828 4.252-9.984 1.363-4.148 2.393-8.807 2.15-12.86-.248-4.114-2.737-8.501-5.665-12.27-2.942-3.787-6.39-7.03-8.675-8.863a.374.374 0 00-.171-.078l-12.49-2.113a.404.404 0 00-.039-.005l-10.193-.555c-1.63-.24-4.16-.667-6.47-1.164a42.934 42.934 0 01-3.156-.786c-.916-.275-1.575-.538-1.894-.764-.102-.072-.256-.264-.445-.635-.181-.357-.37-.83-.565-1.4-.387-1.139-.775-2.62-1.142-4.231-.733-3.22-1.37-6.917-1.733-9.338a.442.442 0 00-.226-.331zm-.464 1.08c.375 2.42.973 5.815 1.655 8.81.37 1.624.767 3.142 1.17 4.327.2.592.407 1.112.617 1.524.202.398.435.752.71.947.434.308 1.205.599 2.112.87.925.278 2.043.549 3.211.8a108.574 108.574 0 006.552 1.178h.013l10.19.556 12.374 2.094c2.243 1.811 5.6 4.979 8.461 8.662 2.908 3.743 5.243 7.94 5.471 11.745.233 3.868-.753 8.386-2.102 12.492-1.31 3.984-2.946 7.534-4.087 9.65-.695.104-1.682.147-2.574-.031-.94-.188-1.643-.59-1.921-1.258.594-2.482 1.404-6.321 1.946-9.966.276-1.859.484-3.676.558-5.24.073-1.548.017-2.91-.268-3.822-1.061-3.388-3.537-6.497-4.443-7.606a.366.366 0 00-.463-.1.46.46 0 00-.222.467l2.01 15.04-28.52-1.293 2.317-18.2a.458.458 0 00-.23-.468c-.957-.483-2.225-.986-3.627-1.528-.201-.079-.406-.157-.613-.237-1.24-.479-2.57-.992-3.899-1.558-3.116-1.327-6.14-2.912-7.897-4.926-.846-.97-1.497-2.475-1.98-4.33-.482-1.846-.786-3.995-.961-6.213-.335-4.23-.198-8.66.043-11.6.56.015 1.313-.012 2.093-.125.772-.111 1.601-.311 2.304-.661z" fill="#000"/><path d="M125.67 63.119c-.204-.053-.405.103-.449.349l-.753 4.212c-.044.246.085.489.288.542.204.053.404-.103.448-.349l.754-4.213c.044-.246-.085-.488-.288-.541zM146.43 69.215a.39.39 0 00.023.568l2.931 2.612c.17.15.435.141.592-.021a.39.39 0 00-.022-.568l-2.931-2.613a.432.432 0 00-.592.022zM131.997 54.837c.55 1.315 1.947 2.773 5.11 3.106 1.384.146 2.591-.106 3.524-.51.923-.4 1.608-.963 1.92-1.47l-.497-.36c-.219.358-.783.855-1.643 1.227-.85.369-1.961.603-3.246.468-2.996-.316-4.181-1.667-4.625-2.73l-.543.27zM108.919 36.64a.335.335 0 00-.284.386l.81 4.457a.348.348 0 00.403.271.335.335 0 00.284-.385l-.81-4.457a.348.348 0 00-.403-.271zM108.052 36.638c-.11.022-.188.182-.175.357l.352 4.484c.014.175.114.3.224.278.11-.022.189-.182.175-.357l-.352-4.484c-.014-.176-.114-.3-.224-.278zM106.648 36.636c-.161.007-.286.156-.28.333l.17 4.483c.008.177.143.314.304.307.161-.007.287-.157.28-.333l-.17-4.484c-.007-.176-.143-.314-.304-.306zM154.8 100.654c.158.078.341-.006.41-.19l1.637-4.404c.068-.182-.006-.394-.164-.472-.158-.078-.342.007-.41.19l-1.637 4.404c-.068.182.006.394.164.472zM153.333 100.664a.344.344 0 00.436-.207l1.576-4.45a.335.335 0 00-.21-.43.344.344 0 00-.436.208l-1.577 4.45a.335.335 0 00.21.43zM152.542 99.815c.141.053.288-.053.329-.237l.976-4.432c.04-.183-.041-.375-.183-.427-.14-.053-.288.053-.328.237l-.976 4.432c-.04.183.04.375.182.427z" fill="#000"/><path d="M109.719 36.051c.034-.417.227-1.443.723-2.213.497-.77.483-3.723.414-5.102-.103-.225-.372-.54-.62 0-.31.674-.31 3.08-1.034 3.273-.103-1.701-.248-5.449 0-6.835-.069-.256-.29-.635-.62-.096-.35.569-.698 2.716-.799 3.892.073-1.374.179-3.459.179-3.796 0-.481-.517-.674-.724-.096-.207.578-.517 3.85-.517 4.428v-4.428c0-.578-.517-.481-.62 0-.103.481-.413 1.925-.413 4.428-.035-1.22-.104-3.793-.104-4.332 0-.674-.517-.481-.517-.096s-.206 1.733-.206 4.428.413 6.45.723 7.123c.793.032 2.73-.038 4.135-.578z" fill="#FFF" fill-rule="nonzero"/><path d="M106.7 25.883c-.102.738-.2 1.798-.2 3.197 0 .238-.18.43-.405.434a.419.419 0 01-.412-.367c.003 1.313.103 2.876.24 4.2.07.673.148 1.28.228 1.756.048.286.093.508.132.664.817.004 2.271-.089 3.417-.473.082-.54.298-1.422.75-2.13.07-.11.15-.358.216-.758.062-.383.103-.847.127-1.341.034-.673.035-1.383.021-1.982l-.012.072c-.02.118-.04.253-.063.395-.033.215-.069.446-.107.657-.065.36-.148.737-.271 1.045-.113.282-.315.646-.696.749a.394.394 0 01-.343-.07.441.441 0 01-.168-.324 82.09 82.09 0 01-.132-3.552c-.012-.887-.005-1.779.041-2.493-.068.262-.135.57-.196.897a22.887 22.887 0 00-.295 2.118l-.028.528a.42.42 0 01-.422.41.424.424 0 01-.4-.435c0-.151.01-.347.03-.566.054-1.042.125-2.465.158-3.24-.015.09-.031.19-.047.303-.057.388-.114.863-.164 1.34-.103.967-.177 1.903-.177 2.163 0 .24-.184.434-.41.434a.423.423 0 01-.412-.434v-3.197zm-.44-1.707c.128-.19.317-.328.55-.348a.608.608 0 01.54.246.739.739 0 01.065.101c.176-.228.433-.36.731-.29a.76.76 0 01.516.45.971.971 0 01.326-.312c.188-.101.39-.095.562.003a.797.797 0 01.29.309c.057.102.095.21.12.302a.46.46 0 01.008.197c-.114.642-.141 1.88-.123 3.209.007.551.022 1.11.041 1.634l.038-.242c.022-.143.044-.286.069-.432.052-.313.117-.65.222-.88a1.04 1.04 0 01.328-.432.576.576 0 01.535-.077.77.77 0 01.327.242c.072.088.126.183.165.267a.454.454 0 01.04.165c.034.7.055 1.797.005 2.822a13.216 13.216 0 01-.14 1.444c-.067.412-.169.82-.344 1.095-.436.685-.616 1.63-.647 2.006a.432.432 0 01-.268.37c-1.464.568-3.442.637-4.245.604a.411.411 0 01-.354-.246c-.106-.231-.196-.651-.276-1.13-.083-.5-.164-1.126-.235-1.811a45.075 45.075 0 01-.245-4.362c0-1.358.051-2.378.103-3.109.023-.329.047-.599.065-.811l.006-.067c.02-.232.03-.364.03-.435 0-.374.252-.746.63-.781a.59.59 0 01.565.3z" fill="#000"/><path d="M108.584 32.528a.317.317 0 00-.444-.115c-.162.1-.346.323-.518.647-.178.336-.358.813-.493 1.463a.334.334 0 00.248.397.323.323 0 00.384-.257c.124-.597.285-1.011.428-1.282a1.88 1.88 0 01.191-.3.784.784 0 01.067-.072c.016-.016.025-.022.026-.023a.34.34 0 00.11-.458z" fill="#000"/><path d="M128.508 37.918c-1.02 1.849 1.013 6.897 1.863 8.585 4.706-.88 8.04 8.144 10 8.804 1.57.528 3.007-.88 3.53-1.65 5.98-4.733 4.02-11.117 1.373-14.418.98-.66-.033-.77-.49-.55.235-1.585-.458-.991-.883-.33-3.726-3.302-5.294-.441-8.236-.881-2.941-.44-5.883-1.871-7.157.44z" fill="#000" fill-rule="nonzero"/><path d="M131.518 36.04c-1.238-.127-2.232.102-2.833 1.24-.236.446-.301 1.1-.242 1.877.059.774.24 1.65.48 2.527a28.482 28.482 0 001.575 4.283c1.17-.205 2.252.218 3.241.97 1.007.767 1.925 1.879 2.752 3.033.503.702.977 1.426 1.418 2.1.282.43.55.841.804 1.21.327.478.63.89.91 1.203.283.315.533.52.753.597.744.262 1.46.046 2.061-.34a4.75 4.75 0 001.329-1.325l.009-.014.012-.01c2.937-2.426 3.914-5.262 3.842-7.908-.072-2.652-1.2-5.13-2.5-6.822l-.078-.102.101-.071c.118-.083.203-.155.262-.217a.415.415 0 00.095-.137c.008-.022.004-.027.003-.028-.003-.007-.017-.023-.054-.04a.725.725 0 00-.332-.039c-.135.01-.27.044-.371.094l-.164.082.03-.205c.058-.406.055-.654.023-.791-.016-.067-.036-.095-.049-.107-.011-.01-.027-.017-.056-.011-.067.011-.166.08-.284.206a2.9 2.9 0 00-.333.447l-.06.096-.08-.073c-.914-.846-1.69-1.292-2.384-1.497-.692-.205-1.309-.17-1.906-.044-.3.063-.594.149-.892.24l-.158.048c-.245.076-.494.153-.748.219-.62.161-1.275.263-2.018.147a26.403 26.403 0 01-1.974-.412l-.191-.046c-.703-.165-1.374-.316-1.993-.38zm2.222.202c.643.152 1.302.308 1.961.41.713.112 1.344.015 1.95-.143.25-.065.495-.14.74-.216l.16-.05c.299-.09.6-.178.906-.243.616-.13 1.262-.167 1.989.048.706.208 1.482.652 2.379 1.466.093-.142.196-.277.3-.387.121-.13.257-.241.386-.264.068-.011.14.001.2.055a.43.43 0 01.12.228c.037.158.04.389.005.705.09-.027.185-.044.278-.05a.884.884 0 01.414.053.309.309 0 01.149.131.29.29 0 01.012.234.629.629 0 01-.146.221c-.05.054-.114.11-.192.17 1.289 1.717 2.4 4.198 2.472 6.866.074 2.725-.937 5.628-3.912 8.09-.268.408-.76.974-1.38 1.373-.63.405-1.401.644-2.21.36-.266-.094-.543-.33-.832-.651-.29-.324-.6-.746-.927-1.225-.26-.378-.53-.792-.813-1.224-.438-.668-.905-1.382-1.407-2.083-.823-1.148-1.725-2.24-2.708-2.988-.982-.747-2.037-1.146-3.172-.925l-.066.014-.034-.07c-.423-.877-1.14-2.625-1.624-4.394-.242-.884-.428-1.779-.489-2.575-.06-.793.002-1.508.27-2.017.661-1.25 1.755-1.476 3.016-1.347.631.064 1.313.218 2.014.383l.19.045z" fill="#000"/><path d="M137.855 56.277c-4.068 0-7.366-3.73-7.366-8.332 0-.863.116-1.695.331-2.478 1.764-6.418 9.241-5.179 11.854-1.688l.953 2.927c.83-.113 2.798.312 2.688 2.928-.1 2.364-2.004 2.364-2.2 2.702-1.3 2.366-3.617 3.94-6.26 3.94z" fill="#FFF" fill-rule="nonzero"/><path d="M141.938 43.597l1.035 3.176.311-.043a2.13 2.13 0 011.431.373c.456.328.854.93.806 2.08-.022.518-.14.88-.293 1.143a1.762 1.762 0 01-.571.594 3.65 3.65 0 01-.657.324l-.01.004c-.095.039-.2.081-.286.126a.744.744 0 00-.312.278l-.003.005-.003.004c-1.226 2.233-3.413 3.718-5.907 3.718-3.838 0-6.95-3.52-6.95-7.86 0-.814.11-1.598.313-2.336.817-2.971 2.939-4.178 5.223-4.231 2.284-.054 4.647 1.057 5.873 2.645zm-5.889-3.544c-2.536.06-5.023 1.435-5.965 4.863a9.813 9.813 0 00-.348 2.604c0 4.836 3.467 8.757 7.743 8.757 2.757 0 5.178-1.63 6.55-4.082.001-.002.004-.003.007-.005.052-.027.124-.056.233-.1l.008-.004c.205-.083.492-.2.78-.39a2.6 2.6 0 00.836-.878c.238-.411.393-.932.421-1.593.062-1.459-.467-2.372-1.172-2.88a2.874 2.874 0 00-1.633-.526l-.875-2.683-.045-.06c-1.393-1.862-4.032-3.081-6.54-3.023z" fill="#000"/><path d="M187.712 165.069c2.33.818 6.526-.024 5.883-4.41-.587-4.01-3.956-.318-2.784 1.194 4.032 5.198 6.134-2.41 4.974-6.549M11.936 50.892c-2.177.115-5.534 2.186-3.917 5.507 1.477 3.035 3.436-1.057 2.071-1.886-4.69-2.85-4.617 3.978-2.622 6.927" stroke="#FFEEC3"/><path d="M78.642 14.696L73.398 7.39M191.907 90.478l8.39-5.478M15.717 131.565l-7.341-2.739M135.274 6.478L138.421 1" stroke="#979797"/><path fill="#FFE7E7" d="M3.603 100.226l8.78 8.079-1.896 2.66-8.78-8.078z"/><path fill="#EAE7FF" d="M159.92 45.082l8.655-8.252 1.936 2.623-8.654 8.25z"/></g></svg>