<svg width="20" height="20" viewBox="0 0 24 24" fill="none" xmlns="http://www.w3.org/2000/svg" role="graphics-symbol"><title>Cài đặt Bảo Mật</title><path d="M21.5 13.287S17.527 17.5 12 17.5s-9.5-4.213-9.5-4.213S6.473 7.5 12 7.5s9.5 5.787 9.5 5.787Z" stroke="currentColor" stroke-miterlimit="10" stroke-linecap="round" stroke-linejoin="round"></path><path d="M12 16a3.5 3.5 0 1 0 0-7 3.5 3.5 0 0 0 0 7Z" stroke="currentColor" stroke-miterlimit="10" stroke-linecap="round" stroke-linejoin="round"></path><path d="M12 14.5c1.105 0 2-.957 2-2 0-1.043-.895-2-2-2s-2 .957-2 2c0 1.043.895 2 2 2Z" fill="currentColor"></path></svg>