<svg width="20" height="20" viewBox="0 0 24 24" fill="none" xmlns="http://www.w3.org/2000/svg" role="graphics-symbol"><title>Số điện thoại</title><path d="M9.327 3.5h-5.17a.66.66 0 0 0-.656.672c.347 8.863 7.472 15.988 16.334 16.327a.647.647 0 0 0 .665-.649v-5.177a.64.64 0 0 0-.533-.633l-2.766-.487a.625.625 0 0 0-.557.178l-2.434 2.434a.644.644 0 0 1-.904 0l-5.47-5.479a.644.644 0 0 1 0-.904l2.433-2.434a.624.624 0 0 0 .178-.549L9.96 4.033a.646.646 0 0 0-.633-.533Z" stroke="currentColor" stroke-miterlimit="10"></path></svg>