<svg width="20" height="20" viewBox="0 0 24 24" fill="none" xmlns="http://www.w3.org/2000/svg" role="graphics-symbol"><title>Cài đặt Bảo Mật</title><g stroke="currentColor" stroke-miterlimit="10" stroke-linecap="round" stroke-linejoin="round"><path d="M6.5 9.5c-2.443 1.685-4 3.787-4 3.787S6.473 17.5 12 17.5c1.063 0 2.569-.248 3.5-.5m-6-9.11A8.415 8.415 0 0 1 12 7.5c5.527 0 9.5 5.787 9.5 5.787s-1.12 1.098-3 2.213"></path><path d="M8.645 11.5a3.5 3.5 0 0 0 4.855 4.163M11 9.145a3.5 3.5 0 0 1 4.405 4.168M5.5 6.5l14 12"></path></g></svg>